<svg width="24" height="24" viewBox="0 0 24 24" fill="none" xmlns="http://www.w3.org/2000/svg">
<path d="M20.6482 2.67415L13.153 8.241L14.539 4.95663L20.6482 2.67415Z" fill="#E2761B" stroke="#E2761B" stroke-width="0.0753296" stroke-linecap="round" stroke-linejoin="round"/>
<path d="M3.34375 2.67416L10.7788 8.29375L9.46051 4.95665L3.34375 2.67416Z" fill="#E4761B" stroke="#E4761B" stroke-width="0.0753296" stroke-linecap="round" stroke-linejoin="round"/>
<path d="M17.9496 15.5781L15.9534 18.6365L20.2246 19.8116L21.4524 15.6459L17.9496 15.5781Z" fill="#E4761B" stroke="#E4761B" stroke-width="0.0753296" stroke-linecap="round" stroke-linejoin="round"/>
<path d="M2.55322 15.6459L3.77356 19.8116L8.04475 18.6365L6.04851 15.5781L2.55322 15.6459Z" fill="#E4761B" stroke="#E4761B" stroke-width="0.0753296" stroke-linecap="round" stroke-linejoin="round"/>
<path d="M7.80434 10.4106L6.61414 12.2109L10.8552 12.3993L10.7045 7.84183L7.80434 10.4106Z" fill="#E4761B" stroke="#E4761B" stroke-width="0.0753296" stroke-linecap="round" stroke-linejoin="round"/>
<path d="M16.1875 10.4106L13.2497 7.78913L13.1517 12.3993L17.3853 12.211L16.1875 10.4106Z" fill="#E4761B" stroke="#E4761B" stroke-width="0.0753296" stroke-linecap="round" stroke-linejoin="round"/>
<path d="M8.04419 18.6365L10.5903 17.3935L8.39071 15.676L8.04419 18.6365Z" fill="#E4761B" stroke="#E4761B" stroke-width="0.0753296" stroke-linecap="round" stroke-linejoin="round"/>
<path d="M13.4 17.3935L15.9537 18.6365L15.5996 15.676L13.4 17.3935Z" fill="#E4761B" stroke="#E4761B" stroke-width="0.0753296" stroke-linecap="round" stroke-linejoin="round"/>
<path d="M15.9535 18.6365L13.3998 17.3936L13.6032 19.0583L13.5806 19.7589L15.9535 18.6365Z" fill="#D7C1B3" stroke="#D7C1B3" stroke-width="0.0753296" stroke-linecap="round" stroke-linejoin="round"/>
<path d="M8.04492 18.6365L10.4178 19.7589L10.4027 19.0583L10.5911 17.3936L8.04492 18.6365Z" fill="#D7C1B3" stroke="#D7C1B3" stroke-width="0.0753296" stroke-linecap="round" stroke-linejoin="round"/>
<path d="M10.4557 14.5763L8.33142 13.951L9.83048 13.2655L10.4557 14.5763Z" fill="#233447" stroke="#233447" stroke-width="0.0753296" stroke-linecap="round" stroke-linejoin="round"/>
<path d="M13.5364 14.5763L14.1616 13.2655L15.6682 13.951L13.5364 14.5763Z" fill="#233447" stroke="#233447" stroke-width="0.0753296" stroke-linecap="round" stroke-linejoin="round"/>
<path d="M8.04592 18.6365L8.4075 15.5781L6.04968 15.6459L8.04592 18.6365Z" fill="#CD6116" stroke="#CD6116" stroke-width="0.0753296" stroke-linecap="round" stroke-linejoin="round"/>
<path d="M15.5935 15.5781L15.9551 18.6365L17.9513 15.6459L15.5935 15.5781Z" fill="#CD6116" stroke="#CD6116" stroke-width="0.0753296" stroke-linecap="round" stroke-linejoin="round"/>
<path d="M17.387 12.211L13.1534 12.3993L13.5452 14.5763L14.1704 13.2656L15.677 13.9511L17.387 12.211Z" fill="#CD6116" stroke="#CD6116" stroke-width="0.0753296" stroke-linecap="round" stroke-linejoin="round"/>
<path d="M8.33226 13.9511L9.83885 13.2656L10.4566 14.5763L10.8558 12.3993L6.61475 12.211L8.33226 13.9511Z" fill="#CD6116" stroke="#CD6116" stroke-width="0.0753296" stroke-linecap="round" stroke-linejoin="round"/>
<path d="M6.6123 12.2109L8.39008 15.6761L8.32982 13.951L6.6123 12.2109Z" fill="#E4751F" stroke="#E4751F" stroke-width="0.0753296" stroke-linecap="round" stroke-linejoin="round"/>
<path d="M15.6743 13.951L15.599 15.6761L17.3843 12.2109L15.6743 13.951Z" fill="#E4751F" stroke="#E4751F" stroke-width="0.0753296" stroke-linecap="round" stroke-linejoin="round"/>
<path d="M10.853 12.3992L10.4537 14.5763L10.9509 17.145L11.0639 13.7627L10.853 12.3992Z" fill="#E4751F" stroke="#E4751F" stroke-width="0.0753296" stroke-linecap="round" stroke-linejoin="round"/>
<path d="M13.1508 12.3992L12.9474 13.7552L13.0378 17.145L13.5425 14.5763L13.1508 12.3992Z" fill="#E4751F" stroke="#E4751F" stroke-width="0.0753296" stroke-linecap="round" stroke-linejoin="round"/>
<path d="M13.5445 14.5763L13.0398 17.145L13.4014 17.3936L15.601 15.6761L15.6763 13.951L13.5445 14.5763Z" fill="#F6851B" stroke="#F6851B" stroke-width="0.0753296" stroke-linecap="round" stroke-linejoin="round"/>
<path d="M8.33142 13.951L8.39168 15.6761L10.5913 17.3936L10.9529 17.145L10.4557 14.5763L8.33142 13.951Z" fill="#F6851B" stroke="#F6851B" stroke-width="0.0753296" stroke-linecap="round" stroke-linejoin="round"/>
<path d="M13.5821 19.7589L13.6047 19.0584L13.4164 18.8927H10.5765L10.4032 19.0584L10.4183 19.7589L8.04541 18.6365L8.87404 19.3145L10.5539 20.4821H13.439L15.1264 19.3145L15.955 18.6365L13.5821 19.7589Z" fill="#C0AD9E" stroke="#C0AD9E" stroke-width="0.0753296" stroke-linecap="round" stroke-linejoin="round"/>
<path d="M13.4022 17.3937L13.0406 17.1451H10.954L10.5924 17.3937L10.4041 19.0584L10.5773 18.8927H13.4172L13.6056 19.0584L13.4022 17.3937Z" fill="#161616" stroke="#161616" stroke-width="0.0753296" stroke-linecap="round" stroke-linejoin="round"/>
<path d="M20.9645 8.6026L21.6048 5.52915L20.6481 2.67416L13.4014 8.05269L16.1886 10.4105L20.1283 11.5631L21.0021 10.5461L20.6255 10.2749L21.2281 9.72501L20.7611 9.36343L21.3637 8.90392L20.9645 8.6026Z" fill="#763D16" stroke="#763D16" stroke-width="0.0753296" stroke-linecap="round" stroke-linejoin="round"/>
<path d="M2.39661 5.52914L3.03691 8.60258L2.63013 8.9039L3.23276 9.36341L2.77325 9.725L3.37589 10.2749L2.99924 10.5461L3.86553 11.563L7.80527 10.4105L10.5925 8.05268L3.34576 2.67415L2.39661 5.52914Z" fill="#763D16" stroke="#763D16" stroke-width="0.0753296" stroke-linecap="round" stroke-linejoin="round"/>
<path d="M20.1284 11.563L16.1886 10.4105L17.3864 12.2109L15.6011 15.676L17.9514 15.6459H21.4542L20.1284 11.563Z" fill="#F6851B" stroke="#F6851B" stroke-width="0.0753296" stroke-linecap="round" stroke-linejoin="round"/>
<path d="M7.80491 10.4105L3.86518 11.563L2.55444 15.6459H6.04974L8.39248 15.676L6.61471 12.2109L7.80491 10.4105Z" fill="#F6851B" stroke="#F6851B" stroke-width="0.0753296" stroke-linecap="round" stroke-linejoin="round"/>
<path d="M13.1517 12.3992L13.4003 8.05268L14.5453 4.95663H9.46057L10.5905 8.05268L10.8542 12.3992L10.9446 13.7702L10.9521 17.145H13.0387L13.0538 13.7702L13.1517 12.3992Z" fill="#F6851B" stroke="#F6851B" stroke-width="0.0753296" stroke-linecap="round" stroke-linejoin="round"/>
</svg>
