<svg width="24" height="24" viewBox="0 0 24 24" fill="none" xmlns="http://www.w3.org/2000/svg">
<path fill-rule="evenodd" clip-rule="evenodd" d="M12 0C18.6281 0 24 5.37188 24 12C24 18.6281 18.6281 24 12 24C5.37188 24 0 18.6281 0 12C0 5.37188 5.37188 0 12 0Z" fill="url(#paint0_radial_22_691)"/>
<path d="M7.62659 9.26668C10.0407 6.90887 13.9594 6.90887 16.3735 9.26668L16.6641 9.55262C16.786 9.66981 16.786 9.86199 16.6641 9.97918L15.6703 10.9495C15.6094 11.0104 15.511 11.0104 15.45 10.9495L15.0516 10.5604C13.3641 8.91512 10.636 8.91512 8.94846 10.5604L8.5219 10.9776C8.46096 11.0386 8.36253 11.0386 8.30159 10.9776L7.30784 10.0073C7.18596 9.89012 7.18596 9.69793 7.30784 9.58074L7.62659 9.26668ZM18.4313 11.2729L19.3172 12.1354C19.4391 12.2526 19.4391 12.4448 19.3172 12.562L15.3282 16.4573C15.2063 16.5745 15.0094 16.5745 14.8922 16.4573L12.061 13.6917C12.0328 13.6636 11.9813 13.6636 11.9532 13.6917L9.1219 16.4573C9.00003 16.5745 8.80315 16.5745 8.68596 16.4573L4.68284 12.562C4.56096 12.4448 4.56096 12.2526 4.68284 12.1354L5.56877 11.2729C5.69065 11.1557 5.88753 11.1557 6.00471 11.2729L8.83596 14.0386C8.86409 14.0667 8.91565 14.0667 8.94377 14.0386L11.775 11.2729C11.8969 11.1557 12.0938 11.1557 12.211 11.2729L15.0422 14.0386C15.0703 14.0667 15.1219 14.0667 15.15 14.0386L17.9813 11.2729C18.1125 11.1557 18.3094 11.1557 18.4313 11.2729Z" fill="white"/>
<defs>
<radialGradient id="paint0_radial_22_691" cx="0" cy="0" r="1" gradientUnits="userSpaceOnUse" gradientTransform="translate(7.43866e-05 12.0004) scale(24)">
<stop stop-color="#5D9DF6"/>
<stop offset="1" stop-color="#006FFF"/>
</radialGradient>
</defs>
</svg>
