<svg width="16" height="17" viewBox="0 0 16 17" fill="none" xmlns="http://www.w3.org/2000/svg">
<g clip-path="url(#clip0_22_133)">
<path d="M11.6248 2.4416C11.2581 1.46522 10.1214 1.028 9.19505 1.50702C9.0173 1.59894 8.8587 1.72382 8.68522 1.82305C8.19704 2.10166 7.60453 2.12752 7.09407 1.89248C6.72974 1.72474 6.39335 1.47434 6.00474 1.36514C5.19874 1.13866 4.34572 1.51791 3.97377 2.26807C3.79247 2.63373 3.75569 3.04472 3.63527 3.43021C3.46765 3.96673 3.05143 4.38935 2.5176 4.56507C2.32775 4.62757 2.12876 4.66151 1.94142 4.73191C0.96523 5.09871 0.528096 6.23565 1.00703 7.16212C1.09891 7.33995 1.2238 7.49854 1.32298 7.67209C1.60155 8.16033 1.6274 8.753 1.39241 9.26356C1.2247 9.62796 0.97439 9.96438 0.865171 10.3531C0.638736 11.1593 1.0179 12.0125 1.76792 12.3845C2.12958 12.5639 2.54703 12.6033 2.92983 12.7231C3.54913 12.9166 3.95315 13.4203 4.11791 14.0287C4.17415 14.2362 4.20226 14.34 4.23127 14.4172C4.59801 15.3936 5.73472 15.8309 6.661 15.3518C6.83876 15.2598 6.99744 15.135 7.17092 15.0358C7.65901 14.7572 8.25157 14.7313 8.76212 14.9663C8.86186 15.0123 8.958 15.0667 9.05517 15.1178C9.46774 15.3352 9.6741 15.4439 9.85141 15.4937C10.6574 15.7202 11.5104 15.3409 11.8824 14.5907C11.9641 14.4259 12.0217 14.2001 12.1366 13.7488L12.1369 13.7477C12.1641 13.6413 12.1881 13.5335 12.2208 13.4286C12.3884 12.8921 12.8047 12.4695 13.3385 12.2938C13.5283 12.2311 13.7273 12.1973 13.9146 12.1269C14.8909 11.7601 15.328 10.6232 14.8491 9.69667C14.7571 9.51897 14.6323 9.36029 14.5332 9.18674C14.2546 8.69851 14.2287 8.10583 14.4637 7.59527C14.6315 7.23096 14.8818 6.89441 14.9909 6.50568C15.2174 5.69956 14.8382 4.84636 14.0882 4.47435C13.7684 4.31571 13.4139 4.26764 13.0722 4.17754L12.9262 4.13579C12.3898 3.96813 11.9673 3.55184 11.7916 3.0179C11.729 2.82805 11.6952 2.62901 11.6248 2.4416Z" fill="url(#paint0_linear_22_133)"/>
<path d="M11.6248 2.4416C11.2581 1.46522 10.1214 1.028 9.19505 1.50702C9.0173 1.59894 8.8587 1.72382 8.68522 1.82305C8.19704 2.10166 7.60453 2.12752 7.09407 1.89248C6.72974 1.72474 6.39335 1.47434 6.00474 1.36514C5.19874 1.13866 4.34572 1.51791 3.97377 2.26807C3.79247 2.63373 3.75569 3.04472 3.63527 3.43021C3.46765 3.96673 3.05143 4.38935 2.5176 4.56507C2.32775 4.62757 2.12876 4.66151 1.94142 4.73191C0.96523 5.09871 0.528096 6.23565 1.00703 7.16212C1.09891 7.33995 1.2238 7.49854 1.32298 7.67209C1.60155 8.16033 1.6274 8.753 1.39241 9.26356C1.2247 9.62796 0.97439 9.96438 0.865171 10.3531C0.638736 11.1593 1.0179 12.0125 1.76792 12.3845C2.12958 12.5639 2.54703 12.6033 2.92983 12.7231C3.54913 12.9166 3.95315 13.4203 4.11791 14.0287C4.17415 14.2362 4.20226 14.34 4.23127 14.4172C4.59801 15.3936 5.73472 15.8309 6.661 15.3518C6.83876 15.2598 6.99744 15.135 7.17092 15.0358C7.65901 14.7572 8.25157 14.7313 8.76212 14.9663C8.86186 15.0123 8.958 15.0667 9.05517 15.1178C9.46774 15.3352 9.6741 15.4439 9.85141 15.4937C10.6574 15.7202 11.5104 15.3409 11.8824 14.5907C11.9641 14.4259 12.0217 14.2001 12.1366 13.7488L12.1369 13.7477C12.1641 13.6413 12.1881 13.5335 12.2208 13.4286C12.3884 12.8921 12.8047 12.4695 13.3385 12.2938C13.5283 12.2311 13.7273 12.1973 13.9146 12.1269C14.8909 11.7601 15.328 10.6232 14.8491 9.69667C14.7571 9.51897 14.6323 9.36029 14.5332 9.18674C14.2546 8.69851 14.2287 8.10583 14.4637 7.59527C14.6315 7.23096 14.8818 6.89441 14.9909 6.50568C15.2174 5.69956 14.8382 4.84636 14.0882 4.47435C13.7684 4.31571 13.4139 4.26764 13.0722 4.17754L12.9262 4.13579C12.3898 3.96813 11.9673 3.55184 11.7916 3.0179C11.729 2.82805 11.6952 2.62901 11.6248 2.4416Z" fill="url(#paint1_linear_22_133)" fill-opacity="0.8"/>
<path d="M11.6248 2.4416C11.2581 1.46522 10.1214 1.028 9.19505 1.50702C9.0173 1.59894 8.8587 1.72382 8.68522 1.82305C8.19704 2.10166 7.60453 2.12752 7.09407 1.89248C6.72974 1.72474 6.39335 1.47434 6.00474 1.36514C5.19874 1.13866 4.34572 1.51791 3.97377 2.26807C3.79247 2.63373 3.75569 3.04472 3.63527 3.43021C3.46765 3.96673 3.05143 4.38935 2.5176 4.56507C2.32775 4.62757 2.12876 4.66151 1.94142 4.73191C0.96523 5.09871 0.528096 6.23565 1.00703 7.16212C1.09891 7.33995 1.2238 7.49854 1.32298 7.67209C1.60155 8.16033 1.6274 8.753 1.39241 9.26356C1.2247 9.62796 0.97439 9.96438 0.865171 10.3531C0.638736 11.1593 1.0179 12.0125 1.76792 12.3845C2.12958 12.5639 2.54703 12.6033 2.92983 12.7231C3.54913 12.9166 3.95315 13.4203 4.11791 14.0287C4.17415 14.2362 4.20226 14.34 4.23127 14.4172C4.59801 15.3936 5.73472 15.8309 6.661 15.3518C6.83876 15.2598 6.99744 15.135 7.17092 15.0358C7.65901 14.7572 8.25157 14.7313 8.76212 14.9663C8.86186 15.0123 8.958 15.0667 9.05517 15.1178C9.46774 15.3352 9.6741 15.4439 9.85141 15.4937C10.6574 15.7202 11.5104 15.3409 11.8824 14.5907C11.9641 14.4259 12.0217 14.2001 12.1366 13.7488L12.1369 13.7477C12.1641 13.6413 12.1881 13.5335 12.2208 13.4286C12.3884 12.8921 12.8047 12.4695 13.3385 12.2938C13.5283 12.2311 13.7273 12.1973 13.9146 12.1269C14.8909 11.7601 15.328 10.6232 14.8491 9.69667C14.7571 9.51897 14.6323 9.36029 14.5332 9.18674C14.2546 8.69851 14.2287 8.10583 14.4637 7.59527C14.6315 7.23096 14.8818 6.89441 14.9909 6.50568C15.2174 5.69956 14.8382 4.84636 14.0882 4.47435C13.7684 4.31571 13.4139 4.26764 13.0722 4.17754L12.9262 4.13579C12.3898 3.96813 11.9673 3.55184 11.7916 3.0179C11.729 2.82805 11.6952 2.62901 11.6248 2.4416Z" fill="url(#paint2_linear_22_133)" stroke="url(#paint3_linear_22_133)" stroke-width="0.8"/>
<path d="M10.5269 6.69844C9.28233 8.2487 8.70787 9.24605 7.2383 10.5943C6.44735 10.0605 5.81507 9.36006 5.14307 8.68806" stroke="white" stroke-width="1.19048" stroke-linecap="round"/>
</g>
<defs>
<linearGradient id="paint0_linear_22_133" x1="0.800049" y1="1.3" x2="15.0589" y2="15.556" gradientUnits="userSpaceOnUse">
<stop stop-color="#A7A7A7"/>
<stop offset="1" stop-color="#3D3D3D"/>
</linearGradient>
<linearGradient id="paint1_linear_22_133" x1="0.800049" y1="1.3" x2="15.0589" y2="15.556" gradientUnits="userSpaceOnUse">
<stop stop-color="#8B79FF"/>
<stop offset="1" stop-color="#644DFC"/>
</linearGradient>
<linearGradient id="paint2_linear_22_133" x1="0.800049" y1="11.7524" x2="15.056" y2="11.754" gradientUnits="userSpaceOnUse">
<stop stop-color="#B958D6"/>
<stop offset="1" stop-color="#647DFF"/>
</linearGradient>
<linearGradient id="paint3_linear_22_133" x1="7.92805" y1="1.3" x2="7.92805" y2="15.5588" gradientUnits="userSpaceOnUse">
<stop stop-color="#A096E5"/>
<stop offset="1" stop-color="#9286E4"/>
</linearGradient>
<clipPath id="clip0_22_133">
<rect width="16" height="16" fill="white" transform="translate(0 0.5)"/>
</clipPath>
</defs>
</svg>
